<!-- Created with Inkscape (http://www.inkscape.org/) -->
<svg width="84.279mm" height="82.021mm" version="1.1" viewBox="0 0 84.279 82.021" xmlns="http://www.w3.org/2000/svg">
 <defs>
  <clipPath id="clipPath2711">
   <path d="m154.21 577.67h37.895v36.889h-37.895z"/>
  </clipPath>
  <clipPath id="clipPath2719">
   <path d="m-32768 32767h65535v-65535h-65535z"/>
  </clipPath>
 </defs>
 <g transform="translate(-135.94 -100.26)">
  <g transform="matrix(2.242 0 0 -2.242 -210.15 1477.8)">
   <g clip-path="url(#clipPath2711)">
    <g clip-path="url(#clipPath2719)">
     <g transform="translate(191.76 607.5)">
      <path d="m0 0c0.138 0.229 0.199 0.504 0.168 0.779-0.03 0.337-0.076 0.596-0.137 0.795-0.138 0.413-0.459 0.779-1.085 1.253-0.474 0.352-1.04 0.703-1.651 1.009-1.146 0.596-2.919 1.299-4.768 1.299h-0.259c-0.963 0-2.094 0.382-3.087 0.718-0.535 0.183-1.039 0.351-1.528 0.474-0.367 0.091-1.07 0.244-1.742 0.244h-0.016c-1.91 0-3.056-0.336-3.973-0.596-0.229-0.061-0.443-0.137-0.657-0.183-1.054-0.26-1.88-0.367-2.796-0.367-1.773 0-3.867 0.428-6.831 1.406-0.138 0.046-0.291 0.076-0.443 0.076-0.596 0-1.116-0.351-1.345-0.901-0.535-1.33-0.321-2.965 0.55-4.264 0.122-0.183 0.26-0.367 0.413-0.535-3.958-1.895-5.991-4.874-6.999-7.136-0.596-1.33-0.994-2.735-1.146-4.096-0.138-1.253-0.062-2.353 0.214-3.086 0.091-0.26 0.275-0.474 0.504-0.612-0.535-4.294 0.963-8.129 3.224-10.162 0.229-0.214 0.535-0.321 0.856-0.321 0.122 0 0.229 0.016 0.336 0.046 0.474-0.81 1.024-1.543 1.651-2.2 1.833-1.865 4.294-2.98 7.35-3.316h0.137c0.489 0 0.917 0.275 1.131 0.687 1.376-0.382 2.812-0.55 4.096-0.55 5.914 0 6.861 3.286 6.999 4.126-0.948-0.336-1.88-0.244-2.384-0.214-0.627 0.046-1.498 0.382-2.002 0.688-0.78 0.474-2.644 2.032-2.598 4.905 0.061 4.294 4.034 5.333 5.394 5.257 1.253-0.061 2.43-0.413 3.393-1.192 0.015-0.015 0.03-0.031 0.046-0.046l0.045-0.046c0.78-0.611 1.758-0.947 2.736-0.947 0.81 0 1.604 0.214 2.292 0.642 1.329 0.81 2.139 2.231 2.139 3.789 0 0.382-0.045 0.734-0.122 1.085 0 0.016-0.015 0.031-0.015 0.062-0.107 0.427-0.291 0.825-0.55 1.237-0.214 0.994-0.459 1.712-1.085 2.598-0.061 0.092-0.153 0.184-0.245 0.26h0.031c0.168 0 0.336 0.031 0.504 0.092 1.391 0.565 1.88 1.864 2.078 2.536l0.046 0.031c0.061 0.076 0.443 0.596 0.642 1.009l0.031 0.061c0.045 0.091 0.076 0.168 0.107 0.244 0.259 0.657 0.443 1.36 0.534 2.078 0.031 0.444-0.03 0.887-0.183 1.284" fill="#fff"/>
     </g>
     <g transform="translate(190.04 607.73)">
      <path d="m0 0c-0.596 0.367-1.116 0.871-1.391 1.284-0.045 0.076 0.046 0.168 0.123 0.122 0.489-0.29 1.299-0.779 1.864-1.009 0.031-0.015 0.076 0.016 0.076 0.046-0.015 0.229-0.045 0.413-0.091 0.52-0.168 0.519-3.5 2.766-6.464 2.705-1.742-0.046-3.653 0.886-5.043 1.222-0.352 0.092-0.948 0.199-1.452 0.214-2.216 0-3.27-0.489-4.34-0.749-2.537-0.626-4.936-0.703-10.299 1.07-0.092 0.03-0.214-0.015-0.245-0.107-0.856-2.124 1.07-5.272 4.279-4.6 0.046 0.016 0.076-0.046 0.03-0.076-0.55-0.443-1.726-0.581-2.46-0.367-0.137 0.046-0.29 0.061-0.443 0.046-8.023-3.102-9.184-11.232-8.359-13.249 0.504 1.818 1.299 2.796 2.017 3.515-2.934-5.746-1.283-11.507 1.467-13.845-0.428 1.344-0.443 2.75-0.153 3.927 0.856-5.226 3.912-8.756 9.673-9.337-1.237 0.55-2.108 1.803-2.399 2.644 2.445-2.659 9.933-3.469 12.088-1.085-0.902 0.046-2.017 0.504-2.644 0.871-1.727 1.054-3.178 3.041-3.255 5.792-0.046 1.696 0.673 3.621 2.384 5.165-3.53-0.673-8.848 2.277-8.45 7.961 0.382-6.54 6.357-8.206 10.07-7.014 0.825 0.352 1.727 0.566 2.674 0.566 1.589 0 3.041-0.551 4.187-1.468 0.031-0.03 0.061-0.045 0.092-0.076 0.535-0.428 1.222-0.688 1.971-0.688 0.612 0 1.162 0.169 1.651 0.459 0.917 0.565 1.528 1.574 1.528 2.72 0 0.29-0.031 0.55-0.092 0.795v0.03c-0.107 0.397-0.29 0.734-0.519 1.055-0.199 1.008-0.382 1.589-0.933 2.383-0.045 0.062-0.122 0.031-0.137-0.045-0.015-0.337-0.046-0.642-0.107-0.917-0.046-0.245-0.122-0.657-0.199-0.978-0.137-0.505 0.367-0.505 0.611-0.535-0.061-0.168-0.748-0.138-0.779-0.015v0.015c0 0.061-0.015 0.168-0.03 0.305-0.077 0.749-0.321 1.636-1.009 2.216-0.061 0.061-0.168-0.015-0.168-0.137-0.092-0.932-0.321-1.972-0.596-2.552v-0.031c-0.902 0.168-2.048 0.611-3.27 0.749-2.109 0.229-3.179 0.474-3.286 1.666 0 0.046 0.061 0.061 0.077 0.015 0.305-0.596 0.596-1.131 2.338-1.406 0.061-0.015 0.091 0.076 0.03 0.107-1.329 0.764-1.268 1.314-1.192 2.307 0 0.062 0.016 0.107 0.031 0.153 0.305 1.605 1.589 2.69 2.506 3.24 0.046 0.031 0.031 0.107-0.031 0.107-1.283-0.153-2.536-0.718-3.438-2.109 0.092 0.275 0.229 0.566 0.413 0.841 1.543 2.368 4.477 1.879 6.586 1.512 0.122-0.626 0.092-1.528-0.046-2.353-0.015-0.107 0.077-0.199 0.168-0.168 1.162 0.458 1.681 1.467 1.941 2.246 0.229-0.045 0.672-0.107 1.116-0.091 0.015 0 0.015-0.016 0-0.016-0.383-0.045-0.734-0.061-0.78-0.045-0.015 0-0.03-0.031-0.015-0.046 0.107-0.413 0.092-1.116 0-1.727-0.015-0.076 0.046-0.138 0.107-0.107 1.146 0.474 1.345 1.773 1.452 2.109 0.045 0.015 0.076 0.046 0.107 0.061 0 0 0.015 0 0.015-0.015 0 0.015 0.015 0.015 0.015 0.03 0.061 0.077 0.352 0.489 0.489 0.764 0 0 0 0.016 0.015 0.016 0 0.015 0.016 0.03 0.016 0.045 0.03 0.061 0.046 0.107 0.076 0.168 0.245 0.596 0.382 1.208 0.459 1.788 0.091 0.581-0.169 1.101-0.627 1.391m-12.745 2.338c-0.137 0.352-0.137 0.703 0.077 0.978 0.137 0.183-0.153 0.397-0.703 0.199 0.137 0.107 0.305 0.168 0.489 0.198 0.168 0.031 0.351 0.016 0.535-0.015 0.351-0.061 0.687-0.183 0.962-0.397 0.245-0.153 0.489-0.352 0.78-0.52-0.016-0.244-0.092-0.489-0.245-0.764-0.611 0.199-1.161 0.397-1.895 0.321m2.079-0.382c0.214 0.138 0.397 0.336 0.534 0.596 0.016 0 0.046-0.015 0.062-0.015 0.107-0.031 0.214-0.061 0.336-0.092 0.107-0.015 0.229-0.031 0.336-0.031s0.229 0.016 0.351 0.016c-0.259-0.153-0.871-0.673-1.619-0.474"/>
     </g>
    </g>
   </g>
  </g>
 </g>
</svg>
