<svg xmlns="http://www.w3.org/2000/svg" viewBox="0 0 213.72 188.05"><defs><style>.a{fill:#000105;}.b{fill:#fff243;}</style></defs><path class="a" d="M0,188.05.05,75.76,213.72,0l-.05,112.3Z"/><polygon class="b" points="15.33 87.09 15.33 165.92 44.17 155.67 44.17 76.85 15.33 87.09"/><polygon class="b" points="198.44 22.19 169.97 32.3 169.97 111.13 198.44 101.02 198.44 22.19"/><polygon class="b" points="98.4 57.6 69.89 67.72 69.89 95.77 98.4 131.92 98.4 57.6"/><polygon class="b" points="164.95 34.03 136.44 44.15 136.44 72.2 164.95 108.35 164.95 34.03"/><polygon class="b" points="49.2 124.4 67.4 147.43 96.07 137.26 49.2 78.13 49.2 124.4"/><polygon class="b" points="103.34 55.82 103.34 85.32 114.61 99.38 103.34 103.39 103.34 124.17 127.42 115.62 133.87 123.78 162.75 113.58 114.02 52.04 103.34 55.82"/></svg>